<svg width="64" height="64" viewBox="0 0 64 64" fill="none" xmlns="http://www.w3.org/2000/svg">
<g clip-path="url(#clip0_938_98)">
<circle cx="29" cy="37" r="23" fill="white"/>
<path d="M1.33325 36.6667C1.33325 51.7627 13.5706 64 28.6666 64C43.7626 64 55.9999 51.7627 55.9999 36.6667C55.8132 31.3173 54.3546 26.3467 51.9172 21.9973L51.9999 22.16C50.7012 20.472 49.9172 18.328 49.9172 16.0027C49.9172 11.336 54.8399 6.66667 59.9972 6.66667H60.6559C62.4612 6.61867 63.9066 5.144 63.9066 3.33333C63.9066 1.52267 62.4612 0.048 60.6612 0H60.6559H59.9892C51.7892 0 44.7733 4.37333 43.1093 13.3333C39.3173 10.816 34.6613 9.31467 29.6559 9.31467C29.3039 9.31467 28.9572 9.32267 28.6079 9.336L28.6586 9.33333C13.5679 9.34133 1.33859 21.5733 1.33592 36.664L1.33325 36.6667ZM25.3333 36.6667C25.3333 34.8267 26.8266 33.336 28.6666 33.336C30.5066 33.336 31.9999 34.8267 31.9999 36.6693C31.9999 38.512 30.5093 40.0027 28.6666 40.0027C28.6639 40.0027 28.6612 40.0027 28.6586 40.0027C26.8212 39.9973 25.3359 38.5067 25.3359 36.6693V36.6667H25.3333ZM7.99992 36.6667C8.00525 33.36 10.6853 30.6827 13.9919 30.6827C17.2986 30.6827 19.9839 33.3653 19.9839 36.6747C19.9839 39.984 17.3013 42.6667 13.9919 42.6667C12.3386 42.6667 10.8399 41.9973 9.75458 40.912C8.66925 39.8267 7.99992 38.328 7.99992 36.6747C7.99992 36.672 7.99992 36.6693 7.99992 36.6667ZM37.3332 36.6667C37.3386 33.36 40.0186 30.6827 43.3252 30.6827C46.6319 30.6827 49.3172 33.3653 49.3172 36.6747C49.3172 39.984 46.6346 42.6667 43.3252 42.6667C41.6719 42.6667 40.1732 41.9973 39.0879 40.912C38.0026 39.8267 37.3332 38.328 37.3332 36.6747C37.3332 36.672 37.3332 36.6693 37.3332 36.6667ZM22.6666 51.3333C22.6666 48.0187 25.3546 45.3333 28.6666 45.3333C31.9786 45.3333 34.6666 48.0213 34.6666 51.3333C34.6666 54.648 31.9786 57.3333 28.6666 57.3333C28.6639 57.3333 28.6586 57.3333 28.6559 57.3333C25.3466 57.328 22.6666 54.6427 22.6666 51.3333ZM22.6666 22C22.6719 18.6933 25.3519 16.016 28.6586 16.016C31.9652 16.016 34.6506 18.6987 34.6506 22.008C34.6506 25.3173 31.9679 28 28.6586 28C27.0026 28 25.5012 27.328 24.4186 26.24C23.3359 25.1547 22.6666 23.6587 22.6666 22.0053C22.6666 22.0027 22.6666 22 22.6666 21.9973V22Z" fill="#E9738E"/>
</g>
<defs>
<clipPath id="clip0_938_98">
<rect width="64" height="64" fill="white"/>
</clipPath>
</defs>
</svg>
