<svg width="99" height="36" viewBox="0 0 99 36" fill="none" xmlns="http://www.w3.org/2000/svg">
<g clip-path="url(#clip0_962_149)">
<circle cx="15.8618" cy="21.2822" r="12.0331" fill="white"/>
<path fill-rule="evenodd" clip-rule="evenodd" d="M0.729248 20.5523C0.729248 28.8092 7.4226 35.5026 15.6795 35.5026C23.9365 35.5026 30.6298 28.8092 30.6298 20.5523C30.5277 17.6264 29.7299 14.9077 28.3967 12.5288L28.442 12.6177C27.7316 11.6945 27.3028 10.5218 27.3028 9.24991C27.3028 6.69742 29.9953 4.14348 32.8162 4.14348H33.1765C34.1639 4.11722 34.9544 3.31064 34.9544 2.32027C34.9544 1.32991 34.1639 0.523324 33.1794 0.49707H33.1765H32.8118C28.3267 0.49707 24.4892 2.88911 23.5791 7.78989C21.505 6.413 18.9584 5.59183 16.2207 5.59183C16.0281 5.59183 15.8385 5.59621 15.6474 5.6035L15.6751 5.60204C14.6099 5.60261 13.5706 5.71454 12.5685 5.92684C12.5762 6.03045 12.5801 6.13498 12.5801 6.24033C12.5801 8.808 10.2537 10.8895 7.38398 10.8895C7.10469 10.8895 6.83055 10.8698 6.5632 10.8318C6.56343 10.851 6.56354 10.8703 6.56354 10.8895C6.56354 13.6082 4.35959 15.8122 1.64088 15.8122C1.59335 15.8122 1.54596 15.8115 1.49875 15.8101C1.00083 17.2997 0.730999 18.8938 0.730707 20.5509L0.729248 20.5523ZM13.8563 20.5523C13.8563 19.5459 14.6731 18.7306 15.6795 18.7306C16.6859 18.7306 17.5027 19.5459 17.5027 20.5538C17.5027 21.5616 16.6874 22.377 15.6795 22.377H15.6751C14.6702 22.3741 13.8578 21.5587 13.8578 20.5538V20.5523H13.8563ZM4.37566 20.5523C4.37857 18.7437 5.84443 17.2793 7.65305 17.2793C9.46167 17.2793 10.9304 18.7466 10.9304 20.5567C10.9304 22.3668 9.46313 23.8341 7.65305 23.8341C6.74874 23.8341 5.92903 23.468 5.33539 22.8744C4.74176 22.2807 4.37566 21.461 4.37566 20.5567V20.5523ZM20.4199 20.5523C20.4228 18.7437 21.8886 17.2793 23.6972 17.2793C25.5059 17.2793 26.9746 18.7466 26.9746 20.5567C26.9746 22.3668 25.5073 23.8341 23.6972 23.8341C22.7929 23.8341 21.9732 23.468 21.3796 22.8744C20.786 22.2807 20.4199 21.461 20.4199 20.5567V20.5523ZM12.3978 28.5744C12.3978 26.7614 13.868 25.2926 15.6795 25.2926C17.4911 25.2926 18.9613 26.7629 18.9613 28.5744C18.9613 30.3874 17.4911 31.8562 15.6795 31.8562H15.6737C13.8636 31.8533 12.3978 30.3845 12.3978 28.5744ZM12.3978 12.5302C12.4007 10.7216 13.8665 9.2572 15.6751 9.2572C17.4838 9.2572 18.9525 10.7245 18.9525 12.5346C18.9525 14.3447 17.4852 15.812 15.6751 15.812C14.7694 15.812 13.9482 15.4444 13.356 14.8493C12.7639 14.2557 12.3978 13.4374 12.3978 12.5331V12.5302Z" fill="#E9738E"/>
<g filter="url(#filter0_dddd_962_149)">
<path d="M47.5879 18.3153C42.9606 18.3153 39.9282 15.2436 39.9282 11.1282C39.9282 7.01288 42.9606 3.98053 47.5879 3.98053C51.2897 3.98053 53.1209 5.89052 53.3966 7.44607L53.0619 7.48545C52.5893 5.18165 49.616 4.31527 47.7257 4.31527C44.2602 4.31527 42.8621 6.9735 42.8621 11.0101C42.8621 15.5586 44.654 17.9412 47.5879 17.9412C49.0253 17.9412 51.782 17.9215 54.0464 15.6964L54.2827 15.913C51.9198 18.2365 49.0647 18.3153 47.5879 18.3153Z" fill="white"/>
<path d="M55.4653 13.0973C55.4653 9.63173 58.4583 7.83988 61.6876 7.83988C64.8971 7.83988 67.9098 9.63173 67.9098 13.0973C67.9098 16.5431 64.8971 18.3153 61.6876 18.3153C58.4583 18.3153 55.4653 16.5431 55.4653 13.0973ZM61.6876 8.15494C59.2459 8.15494 58.3402 9.6908 58.3402 13.0973C58.3402 16.4447 59.0097 18.0199 61.6876 18.0199C64.2867 18.0199 65.035 16.4447 65.035 13.0973C65.035 9.6908 64.1489 8.15494 61.6876 8.15494Z" fill="white"/>
<path d="M69.5864 34.4091V3.37012H72.3825V12.6641H73.9577C74.3713 12.6641 74.7257 12.6838 75.0998 12.7232L78.0337 8.15494H78.4472L75.4936 12.7822C78.4669 13.2745 79.8256 31.4358 79.8256 34.4091H76.9507C76.9507 31.8296 76.931 12.9988 73.7215 12.9988H72.3825V34.4091H69.5864Z" fill="white"/>
</g>
<path d="M48.172 20.5166H42.5208V20.1819H56.6389V20.5166H50.9877V33.9062H48.1916L48.172 20.5166ZM57.3241 29.0033C57.3241 25.5968 60.1792 23.7656 63.2903 23.7656C67.3269 23.7656 67.8586 26.6404 67.8586 29.9091H60.2777C60.3958 31.8387 61.0062 33.8866 63.2903 33.8866C65.0822 33.8866 66.6574 33.3352 67.9373 32.2325L68.1145 32.4491C66.5787 33.6897 65.2791 34.2213 63.4085 34.2213C59.5688 34.2213 57.3241 31.9963 57.3241 29.0033ZM60.258 29.594H67.5238C67.5238 26.6404 66.9134 24.0806 63.2903 24.0806C60.7306 24.0806 60.258 26.9358 60.258 29.023V29.594ZM85.4883 34.2213C82.8497 34.2213 80.8413 33.5518 80.8413 30.3226C80.8413 28.511 82.1015 27.3887 83.7358 27.0342L81.6683 26.0497C82.2984 25.0455 83.8736 23.7656 87.4573 23.7656C89.8202 23.7656 92.7738 24.3366 92.7738 27.7431V33.9062H89.9777V28.9639L89.9383 29.2002C89.5052 31.7797 88.56 34.2213 85.4883 34.2213ZM86.1184 27.1721C84.5234 27.1721 83.7161 28.0581 83.7161 30.5195C83.7161 33.0989 84.3068 33.9259 85.4686 33.9259C89.0917 33.9259 89.643 30.0075 89.8596 27.1721H86.1184ZM84.5234 26.8964C84.8188 26.857 85.1338 26.8373 85.4686 26.8373H89.899C89.899 24.8289 89.8399 24.0609 87.3589 24.0609C85.2323 24.0609 84.5234 26.4238 84.5234 26.8964Z" fill="white"/>
</g>
<defs>
<filter id="filter0_dddd_962_149" x="34.9282" y="3.37012" width="47.8972" height="45.0391" filterUnits="userSpaceOnUse" color-interpolation-filters="sRGB">
<feFlood flood-opacity="0" result="BackgroundImageFix"/>
<feColorMatrix in="SourceAlpha" type="matrix" values="0 0 0 0 0 0 0 0 0 0 0 0 0 0 0 0 0 0 127 0" result="hardAlpha"/>
<feOffset dy="1"/>
<feGaussianBlur stdDeviation="0.5"/>
<feColorMatrix type="matrix" values="0 0 0 0 0 0 0 0 0 0 0 0 0 0 0 0 0 0 0.1 0"/>
<feBlend mode="normal" in2="BackgroundImageFix" result="effect1_dropShadow_962_149"/>
<feColorMatrix in="SourceAlpha" type="matrix" values="0 0 0 0 0 0 0 0 0 0 0 0 0 0 0 0 0 0 127 0" result="hardAlpha"/>
<feOffset dy="3"/>
<feGaussianBlur stdDeviation="1.5"/>
<feColorMatrix type="matrix" values="0 0 0 0 0 0 0 0 0 0 0 0 0 0 0 0 0 0 0.09 0"/>
<feBlend mode="normal" in2="effect1_dropShadow_962_149" result="effect2_dropShadow_962_149"/>
<feColorMatrix in="SourceAlpha" type="matrix" values="0 0 0 0 0 0 0 0 0 0 0 0 0 0 0 0 0 0 127 0" result="hardAlpha"/>
<feOffset dx="-1" dy="6"/>
<feGaussianBlur stdDeviation="2"/>
<feColorMatrix type="matrix" values="0 0 0 0 0 0 0 0 0 0 0 0 0 0 0 0 0 0 0.05 0"/>
<feBlend mode="normal" in2="effect2_dropShadow_962_149" result="effect3_dropShadow_962_149"/>
<feColorMatrix in="SourceAlpha" type="matrix" values="0 0 0 0 0 0 0 0 0 0 0 0 0 0 0 0 0 0 127 0" result="hardAlpha"/>
<feOffset dx="-1" dy="10"/>
<feGaussianBlur stdDeviation="2"/>
<feColorMatrix type="matrix" values="0 0 0 0 0 0 0 0 0 0 0 0 0 0 0 0 0 0 0.01 0"/>
<feBlend mode="normal" in2="effect3_dropShadow_962_149" result="effect4_dropShadow_962_149"/>
<feBlend mode="normal" in="SourceGraphic" in2="effect4_dropShadow_962_149" result="shape"/>
</filter>
<clipPath id="clip0_962_149">
<rect width="99" height="35.0055" fill="white" transform="translate(0 0.49707)"/>
</clipPath>
</defs>
</svg>
