<svg width="800" height="800" viewBox="0 0 800 800" fill="none" xmlns="http://www.w3.org/2000/svg">
<g clip-path="url(#clip0_922_105)">
<path d="M400 800C620.914 800 800 620.914 800 400C800 179.086 620.914 0 400 0C179.086 0 0 179.086 0 400C0 620.914 179.086 800 400 800Z" fill="url(#paint0_linear_922_105)"/>
<path d="M599.617 234.537C603.177 211.523 581.297 193.359 560.834 202.343L153.281 381.28C138.607 387.723 139.68 409.951 154.899 414.797L238.946 441.563C254.989 446.671 272.357 444.029 286.366 434.351L475.857 303.437C481.572 299.489 487.8 307.614 482.917 312.646L346.517 453.274C333.286 466.917 335.912 490.034 351.829 500.014L504.543 595.78C521.672 606.52 543.706 595.731 546.909 575.031L599.617 234.537Z" fill="white"/>
</g>
<defs>
<linearGradient id="paint0_linear_922_105" x1="400" y1="0" x2="400" y2="800" gradientUnits="userSpaceOnUse">
<stop stop-color="#37BBFE"/>
<stop offset="1" stop-color="#007DBB"/>
</linearGradient>
<clipPath id="clip0_922_105">
<rect width="800" height="800" fill="white"/>
</clipPath>
</defs>
</svg>
