<svg width="800" height="800" viewBox="0 0 800 800" fill="none" xmlns="http://www.w3.org/2000/svg">
<g clip-path="url(#clip0_922_102)">
<path d="M400 800C620.914 800 800 620.914 800 400C800 179.086 620.914 0 400 0C179.086 0 0 179.086 0 400C0 620.914 179.086 800 400 800Z" fill="#2787F5"/>
<path d="M457.68 212.109H342.32C237.039 212.109 212.109 237.039 212.109 342.32V457.68C212.109 562.961 237.039 587.891 342.32 587.891H457.68C562.961 587.891 587.891 562.961 587.891 457.68V342.32C587.891 237.039 562.695 212.109 457.68 212.109ZM515.492 480.219H488.148C477.805 480.219 474.625 472 456.063 453.172C439.883 437.547 432.727 435.406 428.719 435.406C423.148 435.406 421.555 436.969 421.555 444.688V469.352C421.555 475.984 419.43 479.961 401.93 479.961C373.023 479.961 340.938 462.461 318.391 429.836C284.445 382.102 275.164 346.297 275.164 338.875C275.164 334.898 276.727 331.188 284.445 331.188H311.789C318.687 331.188 321.336 334.367 323.984 341.797C337.508 380.781 360.055 414.992 369.297 414.992C372.742 414.992 374.336 413.43 374.336 404.648V364.336C373.273 345.773 363.461 344.18 363.461 337.555C363.461 334.375 366.109 331.188 370.359 331.188H413.328C419.164 331.188 421.281 334.367 421.281 341.266V395.625C421.281 401.461 423.93 403.578 425.523 403.578C428.969 403.578 431.891 401.453 438.25 395.094C457.875 373.086 471.93 339.141 471.93 339.141C473.789 335.164 476.969 331.453 483.867 331.453H511.211C519.43 331.453 521.289 335.695 519.43 341.531C515.984 357.445 482.57 404.648 482.57 404.648C479.656 409.422 478.594 411.547 482.57 416.844C485.484 420.82 495.07 429.039 501.398 436.469C513.07 449.75 522.086 460.867 524.469 468.555C527.164 476.242 523.18 480.219 515.492 480.219Z" fill="white"/>
</g>
<defs>
<clipPath id="clip0_922_102">
<rect width="800" height="800" fill="white"/>
</clipPath>
</defs>
</svg>
