<svg width="320" height="431" viewBox="0 0 320 431" fill="none" xmlns="http://www.w3.org/2000/svg">
<g clip-path="url(#clip0_834_113)">
<rect width="319.69" height="431" rx="20" fill="white"/>
<rect width="319.69" height="431" rx="20" fill="white"/>
<rect x="1" y="1" width="317.69" height="429" rx="19" stroke="#E9738E" stroke-opacity="0.5" stroke-width="2" stroke-dasharray="4 4"/>
<path d="M107.5 163.5L125 181M125 181C119.324 181.006 116.331 181.088 114.007 182.272C111.812 183.39 110.027 185.175 108.908 187.37C107.637 189.866 107.637 193.133 107.637 199.667V244C107.637 250.534 107.637 253.801 108.908 256.297C110.027 258.492 111.812 260.277 114.007 261.395C116.502 262.667 119.769 262.667 126.303 262.667H193.97C200.076 262.667 203.329 262.667 205.765 261.629M125 181L150.889 206.889M212.5 268.5L205.765 261.629M205.765 261.629L174.944 230.944M146.828 169.731C147.379 169.583 147.944 169.475 148.519 169.409C149.181 169.333 149.898 169.333 151.332 169.333H168.941C170.375 169.333 171.092 169.333 171.754 169.409C175.206 169.805 178.302 171.718 180.2 174.629C180.564 175.187 180.885 175.828 181.526 177.111C181.846 177.753 182.007 178.073 182.188 178.352C183.137 179.808 184.686 180.764 186.412 180.962C186.742 181 187.101 181 187.818 181H193.97C200.504 181 203.771 181 206.267 182.272C208.462 183.39 210.247 185.175 211.365 187.37C212.637 189.866 212.636 193.133 212.636 199.667V235.539M174.944 230.944C171.87 235.975 166.327 239.333 160 239.333C150.335 239.333 142.5 231.499 142.5 221.833C142.5 215.506 145.858 209.963 150.889 206.889M174.944 230.944L150.889 206.889" stroke="#E9738E" stroke-width="5" stroke-linecap="round" stroke-linejoin="round"/>
</g>
<defs>
<clipPath id="clip0_834_113">
<rect width="319.69" height="431" rx="20" fill="white"/>
</clipPath>
</defs>
</svg>
